<svg xmlns="http://www.w3.org/2000/svg" viewBox="0 0 1024 1024">
  <title>Knight face square button</title>
  <defs>
    <mask id="buttonMask">
      <rect x="88" y="88" width="848" height="848" rx="154" fill="white"/>
    </mask>
    <filter id="softShadow" x="-20%" y="-20%" width="140%" height="140%">
      <feDropShadow dx="0" dy="24" stdDeviation="24" flood-color="#000000" flood-opacity=".35"/>
    </filter>
    <mask id="faceCutouts">
      <rect width="1024" height="1024" fill="white"/>
      <rect x="354" y="424" width="58" height="116" rx="22" fill="black"/>
      <rect x="483" y="398" width="58" height="142" rx="22" fill="black"/>
      <rect x="612" y="424" width="58" height="116" rx="22" fill="black"/>
      <path d="M388 654Q512 706 636 654" fill="none" stroke="black" stroke-width="30" stroke-linecap="round"/>
    </mask>
  </defs>
  <g filter="url(#softShadow)">
    <rect x="88" y="88" width="848" height="848" rx="154" fill="#991B1B"/>
    <g mask="url(#buttonMask)">
      <path d="M88 88H936V248H88Z" fill="#DC2626"/>
      <path d="M88 776H936V936H88Z" fill="#5F1111"/>
      <path d="M88 88H248V936H88Z" fill="#C81E1E"/>
      <path d="M776 88H936V936H776Z" fill="#7F1515"/>
    </g>
    <rect x="124" y="124" width="776" height="776" rx="124" fill="none" stroke="#F7FAFC" stroke-width="34" opacity=".88"/>
    <path mask="url(#faceCutouts)" fill="#F7FAFC" d="M512 220 710 334 758 588 632 782H392L266 588 314 334 512 220Z"/>
    <path fill="#F7FAFC" d="M292 370 246 454 282 522 314 334Z"/>
    <path fill="#F7FAFC" d="M732 370 778 454 742 522 710 334Z"/>
  </g>
</svg>
